<svg width="1499" height="1599" xmlns="http://www.w3.org/2000/svg" xmlns:xlink="http://www.w3.org/1999/xlink" xml:space="preserve" overflow="hidden"><defs><clipPath id="clip0"><rect x="62" y="60" width="1499" height="1599"/></clipPath><radialGradient cx="0" cy="4430682" r="6073162" fy="4430683" gradientUnits="userSpaceOnUse" spreadMethod="pad" id="fill1" gradientTransform="matrix(0.000360892 0 0 0.000360892 61.9999 60.0002)"><stop offset="0" stop-color="#003D75"/><stop offset="0.49" stop-color="#003D75"/><stop offset="1" stop-color="#32CBEB"/></radialGradient></defs><g clip-path="url(#clip0)" transform="translate(-62 -60)"><path d="M1222.13 60.0002 1442.06 60.0002 1442.06 736.165 1509.87 736.165C1520 736.165 1529.16 740.27 1535.79 746.908L1537.17 748.944 1541.2 751.118C1557.66 764.847 1565.23 787.582 1558.61 809.389L1408.72 1303.47C1406.51 1310.73 1402.94 1317.21 1398.37 1322.7L1393.86 1326.37 1390.28 1331.68C1380.33 1341.64 1366.58 1347.8 1351.4 1347.8L501.86 1347.8 497.374 1346.89 480.509 1361.24 480.509 1374.27 494.275 1382.18 1355.46 1382.18C1375.71 1382.18 1392.12 1398.61 1392.12 1418.86L1392.12 1455.54C1392.12 1475.8 1375.71 1492.22 1355.46 1492.22L1264.54 1492.22 1266.42 1495.68C1272.36 1509.75 1275.65 1525.21 1275.65 1541.44 1275.65 1606.37 1223.05 1659 1158.17 1659 1093.29 1659 1040.69 1606.37 1040.69 1541.44 1040.69 1525.21 1043.98 1509.75 1049.92 1495.68L1051.8 1492.22 727.456 1492.22 729.332 1495.68C735.277 1509.75 738.564 1525.21 738.564 1541.44 738.564 1606.37 685.966 1659 621.083 1659 556.201 1659 503.603 1606.37 503.603 1541.44 503.603 1525.21 506.89 1509.75 512.835 1495.68L514.711 1492.22 494.072 1492.22C489.011 1492.22 484.189 1491.2 479.803 1489.34L479.256 1488.97 478.601 1489.02C471.865 1488.2 465.178 1486.04 458.923 1482.44L412.396 1455.7 409.762 1453.39 407.023 1452.83C388.038 1444.8 374.716 1425.99 374.716 1404.06L374.717 1340.43C374.717 1325.82 380.638 1312.59 390.21 1303.01L394.285 1300.26 398.351 1295.09 433.885 1264.86 252.445 666.932 105.07 666.932C81.2831 666.932 61.9999 647.636 61.9999 623.833L61.9999 599.992C61.9999 576.189 81.2831 556.893 105.07 556.893L293.843 556.893C299.789 556.893 305.454 558.099 310.607 560.28L315.228 563.398 324.063 566.117C333.438 571.128 340.903 579.718 344.235 590.699L540.584 1237.76 1313.73 1237.76 1432.52 846.203 483.533 846.203C463.289 846.203 446.878 829.781 446.878 809.523L446.878 772.845C446.878 752.587 463.289 736.165 483.533 736.165L666.808 736.165 666.808 419.345 886.738 419.345 886.738 736.165 947.219 736.165 947.219 254.287 1167.15 254.287 1167.15 736.165 1222.13 736.165Z" fill="url(#fill1)" fill-rule="evenodd"/></g></svg>